<svg width="15" height="15" viewBox="0 0 15 15" fill="none" xmlns="http://www.w3.org/2000/svg">
<path d="M7.5 13.1875C4.36395 13.1875 1.8125 10.6361 1.8125 7.5C1.8125 4.36395 4.36395 1.8125 7.5 1.8125C10.6361 1.8125 13.1875 4.36395 13.1875 7.5C13.1875 10.6361 10.6361 13.1875 7.5 13.1875ZM11.4102 4.875H10.1737C10.1354 4.87509 10.0977 4.88524 10.0646 4.90443C10.0314 4.92363 10.0039 4.95119 9.98473 4.98438L9.5434 5.74125C9.51434 5.79074 9.5059 5.84966 9.51988 5.90531L9.92621 7.54375C9.93436 7.57676 9.9501 7.60742 9.97217 7.63329C9.99424 7.65916 10.022 7.67953 10.0534 7.69277L10.8217 8.01816C10.8593 8.03409 10.9005 8.03919 10.9408 8.03291C10.9811 8.02663 11.0188 8.00921 11.0498 7.98262L12.1881 7.00316C12.2161 6.979 12.2376 6.94812 12.2505 6.9134C12.2633 6.87868 12.2672 6.84126 12.2616 6.80465C12.1674 6.15788 11.9414 5.53733 11.5977 4.98137C11.5783 4.94895 11.5508 4.92211 11.518 4.90346C11.4851 4.88482 11.4479 4.87502 11.4102 4.875ZM4.17828 8.01598L4.94664 7.69059C4.97796 7.67734 5.00576 7.65697 5.02783 7.6311C5.0499 7.60523 5.06564 7.57458 5.07379 7.54156L5.48012 5.90313C5.4941 5.84747 5.48566 5.78855 5.4566 5.73906L5.01527 4.98438C4.99612 4.95119 4.96858 4.92363 4.93542 4.90443C4.90226 4.88524 4.86464 4.87509 4.82633 4.875H3.58984C3.55245 4.87498 3.51567 4.88454 3.48302 4.90278C3.45037 4.92102 3.42295 4.94732 3.40336 4.97918C3.05969 5.53514 2.83373 6.15569 2.73945 6.80246C2.73391 6.83907 2.73775 6.87649 2.75062 6.91121C2.76348 6.94593 2.78495 6.97682 2.81301 7.00098L3.95133 7.98043C3.98214 8.00682 4.01968 8.02412 4.05976 8.03039C4.09984 8.03667 4.14088 8.03168 4.17828 8.01598ZM11.204 10.4014L10.7099 8.99652C10.7 8.96781 10.6841 8.94148 10.6635 8.91921C10.6428 8.89695 10.6177 8.87923 10.5898 8.86719L9.78102 8.52457C9.7439 8.50887 9.70317 8.50372 9.66331 8.50971C9.62345 8.51569 9.58603 8.53257 9.55516 8.55848L8.0168 9.84883C7.99222 9.86917 7.97238 9.89463 7.95868 9.92345C7.94498 9.95226 7.93775 9.98372 7.9375 10.0156V10.9338C7.93752 10.9698 7.94642 11.0052 7.9634 11.0369C7.98038 11.0687 8.00492 11.0957 8.03484 11.1157L9.20598 11.8961C9.23654 11.9165 9.27175 11.9288 9.30836 11.932C9.34496 11.9352 9.38179 11.9292 9.41543 11.9144C10.0893 11.6205 10.6873 11.1768 11.1641 10.6172C11.1891 10.5879 11.206 10.5526 11.213 10.5147C11.22 10.4768 11.2169 10.4377 11.204 10.4014ZM5.79375 11.8961L6.96516 11.1157C6.99508 11.0957 7.01962 11.0687 7.0366 11.0369C7.05358 11.0052 7.06248 10.9698 7.0625 10.9338V10.0156C7.0625 9.98367 7.0555 9.9521 7.04199 9.92314C7.02848 9.89419 7.00878 9.86854 6.9843 9.84801L5.44594 8.55766C5.41507 8.53175 5.37764 8.51487 5.33778 8.50889C5.29793 8.5029 5.25719 8.50805 5.22008 8.52375L4.41016 8.86719C4.38209 8.87907 4.35681 8.89669 4.33595 8.91892C4.31509 8.94115 4.29911 8.96748 4.28902 8.99625L3.79492 10.4012C3.78208 10.4376 3.77911 10.4768 3.78632 10.5147C3.79352 10.5526 3.81064 10.588 3.83594 10.6172C4.31295 11.1774 4.91146 11.6214 5.58594 11.9155C5.61945 11.9298 5.65602 11.9355 5.69231 11.9321C5.7286 11.9288 5.76347 11.9163 5.79375 11.8961ZM6.26707 2.94207L5.72758 4.30078C5.71524 4.33167 5.71011 4.36496 5.71257 4.39813C5.71504 4.43129 5.72503 4.46346 5.7418 4.49219L6.1566 5.20312C6.17576 5.23631 6.20329 5.26387 6.23645 5.28307C6.26961 5.30226 6.30723 5.31241 6.34555 5.3125H8.65445C8.69277 5.31241 8.73039 5.30226 8.76355 5.28307C8.79671 5.26387 8.82424 5.23631 8.8434 5.20312L9.25848 4.49219C9.27529 4.46348 9.28533 4.43133 9.28784 4.39816C9.29035 4.36499 9.28526 4.33169 9.27297 4.30078L8.7373 2.94262C8.7242 2.90941 8.70318 2.87992 8.67606 2.8567C8.64894 2.83349 8.61655 2.81727 8.58172 2.80945C7.87091 2.64631 7.13237 2.64631 6.42156 2.80945C6.38699 2.81738 6.35486 2.83359 6.32795 2.85669C6.30103 2.8798 6.28014 2.9091 6.26707 2.94207Z" fill="black"/>
</svg>
