<svg width="17" height="16" viewBox="0 0 17 16" fill="none" xmlns="http://www.w3.org/2000/svg">
<path d="M1.48002 16C1.33868 16 1.22035 15.952 1.12502 15.856C1.02902 15.76 0.981018 15.641 0.981018 15.499C0.981018 15.3577 1.02902 15.239 1.12502 15.143C1.22035 15.0477 1.33868 15 1.48002 15H15.384C15.5634 15 15.7107 14.9423 15.826 14.827C15.9414 14.7117 15.999 14.5643 15.999 14.385V0.519012C15.999 0.377679 16.047 0.259013 16.143 0.163013C16.239 0.0670125 16.358 0.0190125 16.5 0.0190125C16.6414 0.0190125 16.76 0.0670125 16.856 0.163013C16.9514 0.259013 16.999 0.377679 16.999 0.519012V14.385C16.999 14.829 16.8407 15.209 16.524 15.525C16.208 15.8417 15.828 16 15.384 16H1.48002ZM12 12.5C11.578 12.5 11.2227 12.3553 10.934 12.066C10.6447 11.7773 10.5 11.422 10.5 11C10.5 10.578 10.6447 10.2227 10.934 9.93401C11.2227 9.64468 11.578 9.50001 12 9.50001C12.422 9.50001 12.7774 9.64468 13.066 9.93401C13.3554 10.2227 13.5 10.578 13.5 11C13.5 11.422 13.3554 11.7773 13.066 12.066C12.7774 12.3553 12.422 12.5 12 12.5ZM3.50002 8.00001C3.35802 8.00001 3.23935 7.95201 3.14402 7.85601C3.04868 7.76001 3.00068 7.64135 3.00002 7.50001C3.00002 7.35868 3.04802 7.24001 3.14402 7.14401C3.24002 7.04801 3.35868 7.00001 3.50002 7.00001H7.29202L1.56502 1.26001C1.46768 1.16201 1.41902 1.04601 1.41902 0.912013C1.41902 0.778679 1.46768 0.663012 1.56502 0.565012C1.66235 0.467012 1.77835 0.418346 1.91302 0.419013C2.04635 0.419013 2.16202 0.467679 2.26002 0.565012L8.00002 6.29201V2.50001C8.00002 2.35801 8.04802 2.23935 8.14402 2.14401C8.24002 2.04801 8.35869 2.00001 8.50002 2.00001C8.64135 2.00001 8.76002 2.04801 8.85602 2.14401C8.95135 2.24001 8.99902 2.35868 8.99902 2.50001V7.19201C8.99902 7.42135 8.92169 7.61335 8.76702 7.76801C8.61235 7.92268 8.42035 8.00001 8.19102 8.00001H3.50002Z" fill="black"/>
</svg>
