<svg width="24" height="24" viewBox="0 0 24 24" fill="none" xmlns="http://www.w3.org/2000/svg">
<path d="M16.138 10.569L9.605 7.30199C9.33057 7.16477 9.02561 7.09998 8.7191 7.11377C8.41258 7.12756 8.11468 7.21948 7.85367 7.38079C7.59267 7.5421 7.37724 7.76745 7.22783 8.03544C7.07842 8.30343 6.99999 8.60517 7 8.91199V15.088C6.99999 15.3948 7.07842 15.6966 7.22783 15.9645C7.37724 16.2325 7.59267 16.4579 7.85367 16.6192C8.11468 16.7805 8.41258 16.8724 8.7191 16.8862C9.02561 16.9 9.33057 16.8352 9.605 16.698L16.138 13.431C17.318 12.841 17.318 11.159 16.138 10.569Z" fill="#F8F8F8"/>
</svg>
